HIERARCHY
ROOT pelvis
{
  OFFSET 0 100 0
  CHANNELS 6 Xposition Yposition Zposition Zrotation Xrotation Yrotation
  JOINT pelvis_right_femur
  {
    OFFSET -10.78128 -3.44521 -0.5502486
    CHANNELS 3 Zrotation Xrotation Yrotation
    JOINT right_femur_tibia
    {
      OFFSET -0.8047443 -44.0398 -0.1307829
      CHANNELS 3 Zrotation Xrotation Yrotation
      JOINT right_tibia_foot
      {
        OFFSET 3.006224 -47.83518 -5
        CHANNELS 3 Zrotation Xrotation Yrotation
        End Site
        {
          OFFSET 0 -5 15
        }
      }
    }
  }
  JOINT pelvis_left_femur
  {
    OFFSET 10.78128 -3.44521 -0.5502486
    CHANNELS 3 Zrotation Xrotation Yrotation
    JOINT left_femur_tibia
    {
      OFFSET 0.8047443 -44.0398 -0.1307829
      CHANNELS 3 Zrotation Xrotation Yrotation
      JOINT left_tibia_foot
      {
        OFFSET -4.370144 -48.10324 -4.275266
        CHANNELS 3 Zrotation Xrotation Yrotation
        End Site
        {
          OFFSET 0 -5 15
        }
      }
    }
  }
  JOINT pelvis_spine1
  {
    OFFSET 0 6.468898 -3.129235
    CHANNELS 3 Zrotation Xrotation Yrotation
    JOINT spine1
    {
      OFFSET 0 23.15396 4.99043
      CHANNELS 3 Zrotation Xrotation Yrotation
      JOINT spine2
      {
        OFFSET 0 20.79997 -5.064912
        CHANNELS 3 Zrotation Xrotation Yrotation
        JOINT neck
        {
          OFFSET 0 14.38658 9.616178
          CHANNELS 3 Zrotation Xrotation Yrotation
          End Site
          {
            OFFSET 0 20 0
          }
        }
      }
      JOINT right_manubrium
      {
        OFFSET -5.722621 16.35077 3.967754
        CHANNELS 3 Zrotation Xrotation Yrotation
        JOINT right_clavicle
        {
          OFFSET -13.16364 1.694482 -4.693211
          CHANNELS 3 Zrotation Xrotation Yrotation
          JOINT right_humerus
          {
            OFFSET -28.5034 -0.3100689 -2.792744
            CHANNELS 3 Zrotation Xrotation Yrotation
            JOINT right_radius
            {
              OFFSET -25.15693 0.02248979 -1.271978
              CHANNELS 3 Zrotation Xrotation Yrotation
              End Site
              {
                OFFSET -15 0 0
              }
            }
          }
        }
      }
      JOINT left_manubrium
      {
        OFFSET 5.722621 16.35077 3.967754
        CHANNELS 3 Zrotation Xrotation Yrotation
        JOINT left_clavicle
        {
          OFFSET 13.16364 1.694482 -4.693211
          CHANNELS 3 Zrotation Xrotation Yrotation
          JOINT left_humerus
          {
            OFFSET 29.39168 -1.063119 -2.237045
            CHANNELS 3 Zrotation Xrotation Yrotation
            JOINT left_radius
            {
              OFFSET 24.59957 -0.9528479 0.9047498
              CHANNELS 3 Zrotation Xrotation Yrotation
              End Site
              {
                OFFSET 15 -0 -0
              }
            }
          }
        }
      }
    }
  }
}
MOTION
Frames: 15
Frame Time: 0.0416666666667
0 103.5113 0 1.324122 -0.5917493 0.1492793 2.865027 -16.83566 7.885077 -0 36.47616 -0 -5.426166 -16.21295 -3.231361 -7.245357 11.72154 -23.22469 -0 4.519772 -0 6.806885 -17.96014 25.22327 -5.073438 -5.962895 4.013069 3.317134 8.130687 -10.05154 0.4267169 20.81813 8.534476 3.314279 -25.06449 9.946571 6.219695 -20.19614 12.42582 83.34173 31.55957 -17.59279 -0 0 20.86833 -11.71552 9.582418 6.314263 10.06375 -21.91762 4.91936 -93.19101 18.36605 19.59257 0 0 -7.575802 12.25168 20.46842 -3.94195
0.2007393 103.37 1.606773 0.5499808 0.1349085 0.1752513 3.969963 -20.34009 8.369261 -0 36.44547 -0 -5.206823 -15.04003 -3.195735 -6.589296 11.81451 -23.15461 -0 4.942507 -0 5.182373 -19.185 24.37783 -4.66084 -5.447507 3.887656 3.409019 8.131466 -9.986523 0.5098747 20.4653 8.70909 3.642175 -25.5319 10.03138 6.186728 -19.7558 12.44087 83.62692 31.63918 -18.11296 -0 0 20.13591 -11.37475 9.769345 6.026295 10.05174 -22.03917 4.651788 -93.02767 18.53932 19.09297 0 0 -8.850666 12.2873 19.77294 -3.760265
0.3871342 103.0555 3.538698 -0.2187224 0.768169 0.1514486 5.222349 -24.98498 7.878459 -0 33.44061 -0 -5.855652 -12.75746 -2.81685 -5.983904 12.1285 -22.09912 -0 5.513435 -0 5.390914 -20.21608 23.68486 -4.192763 -4.417508 3.707647 3.624405 8.124996 -9.695462 0.4905486 20.36829 8.925826 3.702512 -26.20531 10.32223 6.011547 -19.46356 12.58984 84.13717 32.87574 -18.1646 -0 0 18.61429 -10.30879 9.472342 5.904295 9.328736 -21.67807 3.924141 -92.2478 18.78564 18.59318 0 0 -11.17817 12.91283 18.00255 -4.212438
0.5782192 102.5258 5.876215 -0.738933 1.443288 0.1322527 6.184783 -29.09198 7.274597 -0 29.1868 -0 -6.398251 -10.43105 -2.460158 -5.644687 12.51917 -20.82206 -0 6.038076 -0 6.115685 -21.17452 23.09397 -3.742763 -3.681814 3.504968 3.781121 8.109232 -9.570636 0.5233019 20.07339 9.161477 3.975261 -26.76589 10.4912 5.905559 -19.02268 12.66196 84.60697 33.39823 -18.62701 -0 0 17.43907 -9.760332 9.503144 5.721641 9.070976 -21.6636 3.440563 -91.73259 18.98147 17.90131 0 0 -13.1225 13.11233 16.78022 -4.235235
0.781127 101.7913 8.695276 -1.007081 2.206328 0.1982512 6.838453 -32.387 6.624067 -0 24.26525 -0 -6.709748 -8.173611 -2.131346 -5.593575 13.01945 -19.51204 -0 6.741521 -0 7.014741 -22.00044 22.5799 -3.304309 -2.975947 3.3139 3.928337 8.109016 -9.439601 0.5500547 19.80822 9.361872 4.202123 -27.27318 10.6457 5.785335 -18.61493 12.71261 85.1188 33.99099 -19.08995 -0 0 16.20799 -9.218499 9.516186 5.587563 8.784596 -21.65113 2.903872 -91.14006 19.16637 17.19363 0 0 -15.21364 13.33675 15.5213 -4.254284
0.989677 100.9198 12.07107 -1.133697 2.900086 0.4278274 7.228774 -34.55039 5.912004 -0 19.5804 -0 -6.881494 -5.985274 -1.860269 -5.694766 13.70759 -18.2533 -0 8.038149 -0 7.364093 -22.60681 21.84044 -2.86867 -2.371653 3.166592 4.043709 8.143471 -9.317964 0.5951638 19.54804 9.479555 4.388789 -27.69316 10.74545 5.679914 -18.23248 12.70214 85.63115 34.51114 -19.60667 -0 0 15.02951 -8.731793 9.576552 5.460115 8.542272 -21.69251 2.351616 -90.5835 19.3514 16.53714 0 0 -17.28247 13.53774 14.38212 -4.163219
1.192194 100.0398 16.06275 -1.287452 3.403049 0.8712432 7.515886 -35.46683 5.238695 -0 16.07137 -0 -7.061368 -3.983071 -1.670993 -5.74049 14.54944 -17.0732 -0 10.2894 -0 6.600689 -22.75301 20.53093 -2.46017 -1.85648 3.074722 4.125602 8.225641 -9.18929 0.6431057 19.34602 9.504275 4.490437 -27.99911 10.79244 5.579472 -17.91568 12.64755 86.15497 35.04121 -20.10846 -0 0 13.88767 -8.28407 9.636463 5.376576 8.278192 -21.74137 1.759271 -90.03551 19.53638 15.98207 0 0 -19.29053 13.73821 13.31963 -4.002996
1.380258 99.31393 20.70229 -1.612151 3.668833 1.520041 7.863427 -35.22014 4.693968 -0 14.28763 -0 -7.393412 -2.390301 -1.525702 -5.536631 15.3655 -15.93258 -0 13.76622 -0 4.563605 -22.05133 18.39828 -2.094305 -1.443077 3.04604 4.167515 8.36238 -9.055837 0.691131 19.2172 9.432653 4.503159 -28.17169 10.77789 5.488645 -17.67219 12.55508 86.67728 35.55308 -20.57959 -0 0 12.82275 -7.909624 9.698108 5.342939 7.993172 -21.79257 1.143347 -89.53097 19.72802 15.56472 0 0 -21.11692 13.90718 12.36848 -3.75639
1.558986 98.90476 25.97963 -2.163821 3.727811 2.279795 8.371867 -34.00998 4.357541 -0 14.20679 -0 -7.910008 -1.436733 -1.369535 -4.97874 15.80341 -14.76568 -0 18.73853 -0 1.573131 -20.08927 15.47232 -1.791985 -1.13068 3.07849 4.16716 8.550179 -8.918806 0.7311329 19.1767 9.281143 4.432873 -28.20128 10.70455 5.40496 -17.50744 12.44294 87.18432 36.03628 -20.98975 -0 0 11.86577 -7.646462 9.754046 5.374109 7.683943 -21.83369 0.5250606 -89.08443 19.92622 15.29811 0 0 -22.66784 14.01608 11.53809 -3.431652
1.750779 98.93975 31.81438 -2.865015 3.618544 2.968517 9.025248 -31.94141 4.316768 -0 15.30177 -0 -8.500003 -1.294758 -1.222115 -4.111117 15.34036 -13.55006 -0 25.50346 -0 -1.672 -16.68619 12.20877 -1.563253 -0.9121802 3.164936 4.12505 8.77801 -8.780212 0.7595936 19.22196 9.07268 4.300016 -28.095 10.57974 5.327103 -17.41463 12.32634 87.65472 36.46895 -21.31909 -0 0 11.0465 -7.523965 9.806163 5.472671 7.360601 -21.85917 -0.06974366 -88.71239 20.13044 15.17911 0 0 -23.88095 14.04028 10.83577 -3.035823
1.983443 99.47646 38.0168 -3.483113 3.306265 3.361139 9.619328 -28.84408 4.586543 -0 16.73378 -0 -9.007838 -2.102286 -1.202879 -3.153341 13.3626 -12.37145 -0 34.12131 -0 -4.39847 -12.21915 9.408397 -1.409343 -0.7728871 3.294126 4.045264 9.029757 -8.641131 0.7749377 19.33984 8.833805 4.129903 -27.873 10.41589 5.252563 -17.38217 12.2185 88.06785 36.83721 -21.55298 -0 0 10.38217 -7.554251 9.856864 5.635653 7.035669 -21.86566 -0.618904 -88.41948 20.33554 15.18881 0 0 -24.74513 13.96978 10.25487 -2.584563
2.264368 100.4683 44.28195 -3.667311 2.657127 3.290314 9.726759 -24.35666 4.911393 -0 17.52437 -0 -9.408577 -3.904275 -1.396741 -2.465465 9.424327 -11.38766 -0 43.89908 -0 -6.080684 -7.741139 7.873406 -1.321985 -0.6946046 3.453263 3.934633 9.288721 -8.50251 0.7782763 19.50915 8.587744 3.947115 -27.56427 10.22666 5.179594 -17.39534 12.12728 88.4086 37.13281 -21.68805 -0 0 9.875992 -7.730132 9.909847 5.853039 6.722513 -21.85347 -1.107722 -88.20257 20.53495 15.29958 0 0 -25.29116 13.80845 9.780548 -2.095163
2.563949 101.7513 50.28555 -3.118855 1.530906 2.779404 8.939241 -18.37707 4.795736 -0 16.82077 -0 -9.787874 -6.352726 -1.67629 -2.366509 3.660104 -10.65301 -0 53.1018 -0 -6.568094 -4.572854 7.966003 -1.28776 -0.6591105 3.629797 3.801491 9.540742 -8.365615 0.7719229 19.70707 8.352026 3.770844 -27.19976 10.02476 5.10709 -17.43983 12.05601 88.67098 37.35454 -21.73103 -0 0 9.518007 -8.030339 9.967848 6.111611 6.431898 -21.82538 -1.529941 -88.05146 20.72166 15.48042 0 0 -25.57656 13.57047 9.393041 -1.58531
2.834166 103.0827 55.86909 -1.872918 -0.02913724 2.082468 7.378286 -11.52039 4.033208 -0 14.45234 -0 -9.964767 -8.486094 -1.761562 -2.76613 -3.049544 -9.923137 -0 59.50193 -0 -6.107243 -3.411313 9.351848 -1.291657 -0.6507514 3.812759 3.654346 9.775925 -8.232289 0.7586329 19.91327 8.13758 3.613519 -26.80748 9.820336 5.03478 -17.50307 12.00441 88.85808 37.50583 -21.69688 -0 0 9.288921 -8.42649 10.03243 6.397231 6.171005 -21.78579 -1.886443 -87.95278 20.89019 15.70188 0 0 -25.66741 13.27464 9.07236 -1.070204
3.047596 104.2164 61.1304 -0.4196849 -1.71219 1.488496 5.802237 -4.947961 3.120145 -0 11.32123 -0 -9.390129 -9.352137 -1.552343 -2.95988 -9.600274 -8.723846 -0 61.46916 -0 -5.317618 -3.761995 11.26257 -1.319978 -0.6575212 3.993411 3.500826 9.988744 -8.104748 0.740923 20.11239 7.949786 3.481404 -26.40954 9.620566 4.962928 -17.57505 11.97019 88.97966 37.5931 -21.60481 -0 0 9.164742 -8.889529 10.10394 6.697047 5.943352 -21.73963 -2.182873 -87.89249 21.0372 15.9389 0 0 -25.62572 12.93983 8.800886 -0.5616881
